<svg xmlns="http://www.w3.org/2000/svg" width="24" height="24" viewBox="0 0 24 24"><g transform="translate(-172 -188)"><path d="M3.58-1A4.549,4.549,0,0,1,6.817.343a1,1,0,0,1,0,1.414l-5.06,5.06a1,1,0,0,1-1.414,0A4.549,4.549,0,0,1-1,3.58,4.585,4.585,0,0,1,3.58-1Zm.975,2.191A2.581,2.581,0,0,0,1.191,4.555Z" transform="translate(180.42 196.42)" fill="#424e5b"/><path d="M3.385,15.04a1,1,0,0,1-.652-.242,15.281,15.281,0,0,1-2.9-3.391A5.886,5.886,0,0,1-1,8.275,5.886,5.886,0,0,1-.168,5.142C2.315,1.239,5.943-1,9.785-1a10.642,10.642,0,0,1,6.422,2.242,1,1,0,0,1-1.2,1.6A8.66,8.66,0,0,0,9.785,1,8.372,8.372,0,0,0,5.3,2.338,12.224,12.224,0,0,0,1.519,6.217a4.363,4.363,0,0,0,0,4.115,13.287,13.287,0,0,0,2.519,2.95,1,1,0,0,1-.652,1.758Z" transform="translate(174.215 191.73)" fill="#424e5b"/><path d="M3.58,13.34a10.184,10.184,0,0,1-3.968-.818,1,1,0,0,1-.534-1.31,1,1,0,0,1,1.31-.534,8.2,8.2,0,0,0,3.192.662A8.372,8.372,0,0,0,8.07,10a12.224,12.224,0,0,0,3.777-3.879,4.363,4.363,0,0,0,0-4.115,15.106,15.106,0,0,0-1-1.381A1,1,0,0,1,11-.779a1,1,0,0,1,1.406.152A17.071,17.071,0,0,1,13.534.934a5.885,5.885,0,0,1,.831,3.131A5.886,5.886,0,0,1,13.533,7.2C11.05,11.1,7.422,13.34,3.58,13.34Z" transform="translate(180.42 195.93)" fill="#424e5b"/><path d="M0,3.82A1,1,0,0,1-.983,3a1,1,0,0,1,.8-1.165A2.563,2.563,0,0,0,1.837-.181,1,1,0,0,1,3-.983,1,1,0,0,1,3.8.181,4.541,4.541,0,0,1,.181,3.8,1.006,1.006,0,0,1,0,3.82Z" transform="translate(184.69 200.7)" fill="#424e5b"/><path d="M0,8.47a1,1,0,0,1-.707-.293,1,1,0,0,1,0-1.414l7.47-7.47a1,1,0,0,1,1.414,0,1,1,0,0,1,0,1.414L.707,8.177A1,1,0,0,1,0,8.47Z" transform="translate(174 202.53)" fill="#424e5b"/><path d="M0,8.47a1,1,0,0,1-.707-.293,1,1,0,0,1,0-1.414l7.47-7.47a1,1,0,0,1,1.414,0,1,1,0,0,1,0,1.414L.707,8.177A1,1,0,0,1,0,8.47Z" transform="translate(186.53 190)" fill="#424e5b"/><path d="M0,0H24V24H0Z" transform="translate(196 212) rotate(180)" fill="none" opacity="0"/></g></svg>